<?xml version="1.0" encoding="UTF-8"?>
<svg width="18px" height="18px" viewBox="0 0 18 18" version="1.1" xmlns="http://www.w3.org/2000/svg" xmlns:xlink="http://www.w3.org/1999/xlink">
    <!-- Generator: Sketch 52.5 (67469) - http://www.bohemiancoding.com/sketch -->
    <title>aqgl</title>
    <desc>Created with Sketch.</desc>
    <g id="aqgl" stroke="none" stroke-width="1" fill-rule="evenodd">
        <g id="anquanguanli" transform="translate(3.000000, 1.000000)"  fill-rule="nonzero">
            <path d="M11.063973,10.1295998 C11.063973,11.0631768 11.0044357,11.2980181 10.3735064,11.6626837 L6.34399294,13.8126396 L5.65352635,13.8126396 L1.62649363,11.6626837 C0.995564273,11.2980181 0.936853942,11.0631768 0.936853928,10.1295998 L0.936853928,4.14362649 L0.0131998129,4.14362649 L0.0131998129,10.1295998 C0.0131998129,11.1483481 0.0876213669,11.8164882 1.10967731,12.4283987 L5.42364645,14.7338129 L6.57469974,14.7338129 L10.8200357,12.4680902 L10.8886689,12.4283987 C11.9098979,11.8164882 11.9843195,11.1483481 11.9843195,10.1295998 L11.9843195,4.14362649 L11.063973,4.14362649 L11.063973,10.1295998 Z M2.77589311,8.28807987 L9.22576071,8.28807987 L9.22576071,7.36690647 L2.77589311,7.36690647 L2.77589311,8.28807987 Z M2.77589311,10.1295998 L9.22576071,10.1295998 L9.22576071,9.20842637 L2.77589311,9.20842637 L2.77589311,10.1295998 Z M2.77589311,5.52538658 L2.77589311,6.44986761 L6.00082691,6.44986761 L6.00082691,5.52538658 L2.77589311,5.52538658 Z M8.76186639,2.30045278 C7.49313935,2.29681515 6.46579262,1.26872932 6.46306742,-1.68158723e-14 L5.53858639,-1.68158723e-14 C5.53722115,1.27020701 4.50833931,2.29982851 3.23813361,2.30210659 L0.0131998129,2.30210659 L0.0131998129,3.2249338 L3.23813361,3.2249338 C4.36948234,3.22332532 5.41725428,2.62899167 5.99917309,1.65877364 C6.58139558,2.62949643 7.62992792,3.22390537 8.76186639,3.2249338 L11.9868002,3.2249338 L11.9868002,2.30210659 L8.76186639,2.30045278 Z" id="形状"></path>
        </g>
    </g>
</svg>