<?xml version="1.0" encoding="UTF-8"?>
<svg width="18px" height="18px" viewBox="0 0 18 18" version="1.1" xmlns="http://www.w3.org/2000/svg" xmlns:xlink="http://www.w3.org/1999/xlink">
    <!-- Generator: Sketch 52.5 (67469) - http://www.bohemiancoding.com/sketch -->
    <title>delete</title>
    <desc>Created with Sketch.</desc>
    <g id="delete" stroke="none" stroke-width="1" fill="none" fill-rule="evenodd">
        <g id="delete-copy" transform="translate(5.000000, 2.000000)" fill="#D75858" fill-rule="nonzero">
            <path d="M7.87500788,1.3 L1.12500788,1.3 C0.503559059,1.3 1.4426949e-10,1.73639962 0,2.27499658 L0,2.6 L9,2.6 L9,2.27499658 C9.00001576,1.73639962 8.49647244,1.3 7.87500788,1.3 Z M5.00777043,1.3 L5.14285714,2.6 L2.57142857,2.6 L2.70650244,1.30000002 L5.00777043,1.3 Z M6.77385878,0 L3.51214072,0 C3.17569578,0 2.86274207,0.242684361 2.81575963,0.540005515 L2.57726897,2.0603454 C2.53068034,2.35730039 2.76798959,2.6 3.10443452,2.6 L7.1815821,2.6 C7.51800991,2.6 7.75533629,2.35731564 7.70835384,2.05999449 L7.46984607,0.539654595 C7.4232232,0.242684361 7.11028661,0 6.77385878,0 Z M8.27397532,3.9 L0.726010621,3.9 C0.289186338,3.9 -0.0363131653,4.27082663 0.00325860825,4.72404181 L0.654257599,12.1759582 C0.693428973,12.6291907 1.08372474,13 1.52054903,13 L7.47947028,13 C7.91629456,13 8.30657364,12.6291734 8.34576171,12.1759582 L8.99674401,4.72404181 C9.0362991,4.27082663 8.7107996,3.9 8.27397532,3.9 Z M2.57142857,10.4 L1.60714623,10.4 L1.28571429,5.2 L2.57141506,5.2 L2.57141508,10.4 L2.57142857,10.4 Z M5.14285714,10.4 L3.85714286,10.4 L3.85714286,5.2 L5.14285714,5.2 L5.14285714,10.4 Z M7.3928639,10.4 L6.42857143,10.4 L6.42857143,5.2 L7.71428571,5.2 L7.3928639,10.4 Z" id="Shape"></path>
        </g>
    </g>
</svg>