<?xml version="1.0" encoding="UTF-8"?>
<svg width="18px" height="18px" viewBox="0 0 18 18" version="1.1" xmlns="http://www.w3.org/2000/svg" xmlns:xlink="http://www.w3.org/1999/xlink">
    <!-- Generator: Sketch 52.5 (67469) - http://www.bohemiancoding.com/sketch -->
    <title>down</title>
    <desc>Created with Sketch.</desc>
    <g id="down" stroke="none" stroke-width="1" fill="none" fill-rule="evenodd">
        <path d="M10.5857864,8.58578644 L10.5857864,13.0857864 C10.5857864,13.9142136 9.91421356,14.5857864 9.08578644,14.5857864 L8.08578644,14.5857864 C7.25735931,14.5857864 6.58578644,13.9142136 6.58578644,13.0857864 L6.58578644,8.58578644 L5,8.58578644 C4.44771525,8.58578644 4,8.13807119 4,7.58578644 C4,7.32056995 4.10535684,7.06621603 4.29289322,6.87867966 L7.87867966,3.29289322 C8.26920395,2.90236893 8.90236893,2.90236893 9.29289322,3.29289322 L12.8786797,6.87867966 C13.2692039,7.26920395 13.2692039,7.90236893 12.8786797,8.29289322 C12.6911433,8.4804296 12.4367894,8.58578644 12.1715729,8.58578644 L10.5857864,8.58578644 Z" id="合并形状-copy-3" fill="#0E97EB" transform="translate(8.585786, 8.792893) scale(1, -1) translate(-8.585786, -8.792893) "></path>
    </g>
</svg>