<?xml version="1.0" encoding="UTF-8"?>
<svg width="18px" height="18px" viewBox="0 0 18 18" version="1.1" xmlns="http://www.w3.org/2000/svg" xmlns:xlink="http://www.w3.org/1999/xlink">
    <!-- Generator: Sketch 52.5 (67469) - http://www.bohemiancoding.com/sketch -->
    <title>jdgl</title>
    <desc>Created with Sketch.</desc>
    <g id="jdgl" stroke="none" stroke-width="1" fill-rule="evenodd">
        <g id="jinduguanli" transform="translate(2.000000, 2.000000)" fill-rule="nonzero">
            <path d="M11.9866149,11.2516924 L11.2521251,11.985077 L9.66252548,10.3955386 L9.66252548,8.13076939 L10.6996423,8.13076939 L10.6996423,9.96584626 L11.9855379,11.2516924 L11.9866149,11.2516924 Z M10.1816224,12.9629231 C11.1750788,12.9631155 12.093173,12.433311 12.5900678,11.5730818 C13.0869626,10.7128526 13.0871679,9.65288802 12.5906063,8.79246645 C12.0940447,7.93204489 11.1761558,7.40188485 10.1826993,7.40169249 C8.64694882,7.40169252 7.40197706,8.64661639 7.40197706,10.1823078 C7.40197706,11.7179992 8.64694882,12.9629231 10.1826993,12.9629231 L10.1816224,12.9629231 Z M10.1816224,14 C8.07279064,14 6.36324474,12.2905199 6.36324474,10.1817693 C6.36324474,8.07301877 8.07279064,6.36353867 10.1816224,6.36353867 C12.2904541,6.36353867 14,8.07301877 14,10.1817693 C14,12.2905199 12.2904541,14 10.1816224,14 Z M2.6148698,10.3696924 L2.6148698,9.33261551 L5.27927997,9.33261551 L5.27927997,10.3696924 L2.6148698,10.3696924 Z M2.6148698,7.30584634 L2.6148698,6.26769252 L6.22270087,6.26769252 L6.22270087,7.30584634 L2.6148698,7.30584634 Z M2.6148698,4.19461565 L2.6148698,3.15753876 L10.9365745,3.15753876 L10.9365745,4.19461565 L2.6148698,4.19461565 Z M5.5151352,12.4438462 L5.5151352,13.482 L1.50882726,13.482 C1.10894699,13.4822857 0.725331277,13.323714 0.442371254,13.0411688 C0.159411232,12.7586236 0.000285526756,12.3752496 0,11.9753847 L0,1.50769265 C-1.02057898e-07,1.10764114 0.158999533,0.723990421 0.441990534,0.441212296 C0.724981536,0.158434171 1.10876046,-0.00028536563 1.50882726,3.85447783e-07 L12.0200008,3.85447783e-07 C12.4202542,-0.000285601137 12.8041966,0.158581714 13.0872186,0.441592841 C13.3702406,0.724603969 13.529114,1.1085315 13.528828,1.50876957 L13.528828,5.51492331 L12.4927882,5.51492331 L12.4927882,1.50876957 C12.493075,1.3835813 12.4434692,1.26343781 12.3549441,1.1749161 C12.2664189,1.08639438 12.1462708,1.03679048 12.0210777,1.03707728 L1.50990423,1.03707728 C1.38471113,1.03679048 1.26456302,1.08639438 1.1760379,1.1749161 C1.08751278,1.26343781 1.03790696,1.3835813 1.03819378,1.50876957 L1.03819378,11.9732308 C1.03819378,12.2338462 1.24927882,12.4449231 1.50990423,12.4449231 L5.51621216,12.4449231 L5.5151352,12.4438462 Z" id="形状"></path>
        </g>
    </g>
</svg>