<?xml version="1.0" encoding="UTF-8"?>
<svg width="18px" height="18px" viewBox="0 0 18 18" version="1.1" xmlns="http://www.w3.org/2000/svg" xmlns:xlink="http://www.w3.org/1999/xlink">
    <!-- Generator: Sketch 52.5 (67469) - http://www.bohemiancoding.com/sketch -->
    <title>look</title>
    <desc>Created with Sketch.</desc>
    <g id="look" stroke="none" stroke-width="1" fill="none" fill-rule="evenodd">
        <g id="yulan-copy" transform="translate(1.000000, 3.000000)" fill="#0E97EB" fill-rule="nonzero">
            <path d="M8.19834141,0.0148744017 C4.47484418,0.0148744017 1.2950742,2.33090099 0.00676108968,5.60007968 C1.2950742,8.86925836 4.47484418,11.1852579 8.19834141,11.1852579 C11.9255167,11.1852579 15.1015816,8.86925838 16.3899217,5.60007968 C15.1015816,2.33090099 11.9255167,0.0148744017 8.19834141,0.0148744017 Z M8.19834141,9.32344168 C6.14304969,9.32344168 4.47484418,7.65542547 4.47484418,5.60005263 C4.47484418,3.5446798 6.14296855,1.87658245 8.19834141,1.87658245 C10.2537143,1.87658245 11.9218386,3.54467978 11.9218386,5.60005263 C11.9218386,7.65545253 10.2537143,9.32344168 8.19834141,9.32344168 Z M8.19834141,3.36597053 C6.96590199,3.36597053 5.96425929,4.36761322 5.96425929,5.60007968 C5.96425929,6.83249205 6.96590197,7.83413473 8.19834141,7.83413475 C9.43078082,7.83413475 10.4324235,6.83249207 10.4324235,5.60007968 C10.4324235,4.3676132 9.43078084,3.36597052 8.19834141,3.36597053 Z" id="形状"></path>
        </g>
    </g>
</svg>