<?xml version="1.0" encoding="UTF-8"?>
<svg width="18px" height="18px" viewBox="0 0 18 18" version="1.1" xmlns="http://www.w3.org/2000/svg" xmlns:xlink="http://www.w3.org/1999/xlink">
    <!-- Generator: Sketch 52.5 (67469) - http://www.bohemiancoding.com/sketch -->
    <title>modify</title>
    <desc>Created with Sketch.</desc>
    <g id="modify" stroke="none" stroke-width="1" fill="none" fill-rule="evenodd">
        <g id="news-write-copy-3" transform="translate(4.000000, 3.000000)" fill="#0E97EB" fill-rule="nonzero">
            <path d="M9.75687442,4.67890977 L8.25659535,3.1786307 L7.57789767,2.49993302 L6.30980465,1.23184 L7.22068837,0.320956279 C7.64338605,-0.101741395 8.32803721,-0.101741395 8.75073488,0.320956279 L10.6618047,2.23202605 C11.0845023,2.65472372 11.0845023,3.33937488 10.6618047,3.76207256 L9.75687442,4.67890977 Z M8.98887442,5.44690977 L3.76766512,10.6681191 C3.56524651,10.8705377 3.29138605,10.983654 2.99966512,10.983654 L0.546827907,10.983654 C0.249153488,10.983654 0.00506046512,10.7395609 0.00506046512,10.4418865 L0.00506046512,7.9890493 C0.00506046512,7.70328186 0.118176744,7.4294214 0.320595349,7.2210493 L3.78552558,3.76207256 L5.54775814,1.99984 L8.98887442,5.44690977 Z M4.76785116,10.95984 L6.11929302,9.60839814 L10.3165023,9.60839814 C10.6915721,9.60839814 10.9952,9.91202605 10.9952,10.2870958 C10.9952,10.6621656 10.6915721,10.9657935 10.3165023,10.9657935 L4.76785116,10.9657935 L4.76785116,10.95984 Z M6.93492093,8.79277023 L8.28636279,7.44132837 L10.3165023,7.44132837 C10.6915721,7.44132837 10.9952,7.74495628 10.9952,8.12002605 C10.9952,8.49509581 10.6915721,8.79872372 10.3165023,8.79872372 L6.93492093,8.79872372 L6.93492093,8.79277023 Z" id="Shape"></path>
        </g>
    </g>
</svg>