<?xml version="1.0" encoding="UTF-8"?>
<svg width="18px" height="18px" viewBox="0 0 18 18" version="1.1" xmlns="http://www.w3.org/2000/svg" xmlns:xlink="http://www.w3.org/1999/xlink">
    <!-- Generator: Sketch 52.5 (67469) - http://www.bohemiancoding.com/sketch -->
    <title>mxll</title>
    <desc>Created with Sketch.</desc>
    <g id="mxll" stroke="none" stroke-width="1"  fill-rule="evenodd">
        <g id="分组-2" transform="translate(1.000000, 3.000000)">
            <path d="M7.75370607,11.3051182 C7.65956723,11.3051182 7.56542839,11.3051182 7.47128956,11.2737386 L7.15749343,11.1795997 C6.24748468,10.8971832 5.2747167,10.7716648 4.23918949,10.7716648 C3.20366229,10.7716648 2.23089431,10.8971832 1.28950594,11.1795997 C1.1953671,11.2109794 1.10122827,11.2109794 1.00708943,11.2109794 C0.44225641,11.2109794 0.00294183865,10.7716648 0.00294183865,10.2382114 L0.00294183865,1.70295685 C0.00294183865,1.3264015 0.191219512,1.01260538 0.536395247,0.855707317 C1.6974409,0.290874296 2.92124578,0.00845778612 4.17643027,0.00845778612 C5.40023515,0.00845778612 6.59266041,0.290874296 7.72232645,0.824327705 C8.8519925,0.290874296 10.0444178,0.00845778612 11.2682226,0.00845778612 C12.5234071,0.00845778612 13.747212,0.290874296 14.9082577,0.855707317 C15.2534334,1.01260538 15.4417111,1.35778111 15.4417111,1.73433646 L15.4417111,10.269591 C15.4417111,10.8030444 15.0023965,11.242359 14.4689431,11.242359 C14.3434246,11.242359 14.2492858,11.242359 14.155147,11.2109794 C13.2451382,10.9285629 12.2409906,10.8030444 11.236843,10.8030444 C10.2326954,10.8030444 9.25992745,10.9285629 8.31853909,11.2109794 L8.03612258,11.2737386 C7.94198374,11.3051182 7.8478449,11.3051182 7.75370607,11.3051182 Z M4.23918949,9.5164803 C5.36885553,9.5164803 6.46714196,9.67337836 7.50266917,9.98717448 L7.75370607,10.0499337 L8.00474296,9.98717448 C9.04027017,9.67337836 10.1385566,9.5164803 11.2682226,9.5164803 C12.2723702,9.5164803 13.2765178,9.64199875 14.2179062,9.89303565 L14.2179062,1.85985491 C13.2765178,1.42054034 12.3037498,1.20088305 11.2996023,1.20088305 C10.2326954,1.20088305 9.19716823,1.45191995 8.22440025,1.92261413 L8.19302064,1.95399375 C7.94198374,2.0795122 7.59680801,2.0795122 7.34577111,1.95399375 L7.31439149,1.95399375 C6.34162351,1.45191995 5.30609631,1.23226266 4.20780988,1.23226266 C3.20366229,1.23226266 2.23089431,1.45191995 1.28950594,1.89123452 L1.28950594,9.89303565 C2.23089431,9.64199875 3.2350419,9.5164803 4.23918949,9.5164803 Z" id="形状" fill-rule="nonzero"></path>
            <path d="M7.5,10.3051182 C7.225,10.3051182 7,10.076433 7,9.79692894 L7,2.30113735 C7,2.02163326 7.225,1.79294809 7.5,1.79294809 C7.775,1.79294809 8,2.02163326 8,2.30113735 L8,9.79692894 C8,10.076433 7.775,10.3051182 7.5,10.3051182 Z" id="路径" transform="translate(7.500000, 6.049033) scale(-1, 1) translate(-7.500000, -6.049033) "></path>
        </g>
    </g>
</svg>