<?xml version="1.0" encoding="UTF-8"?>
<svg width="22px" height="22px" viewBox="0 0 22 22" version="1.1" xmlns="http://www.w3.org/2000/svg" xmlns:xlink="http://www.w3.org/1999/xlink">
    <!-- Generator: Sketch 52.5 (67469) - http://www.bohemiancoding.com/sketch -->
    <title>password</title>
    <desc>Created with Sketch.</desc>
    <g id="password" stroke="none" stroke-width="1" fill="none" fill-rule="evenodd">
        <path d="M8.37289006,8.54967852 L5.17343223,8.54967852 L5.17343223,5.21604529 C5.17343223,4.49038655 5.3346614,3.81347949 5.65575188,3.18638325 C5.97813824,2.55935119 6.42280536,2.00761305 6.98964524,1.53113673 C7.55644913,1.05478879 8.2246197,0.680373269 8.99426493,0.408018556 C9.76520605,0.136755059 10.6063047,0 11.5215206,0 C12.332814,0 13.1167859,0.136755059 13.8694767,0.408018556 C14.6235354,0.680373269 15.2917059,1.05478879 15.8754283,1.53113673 C16.4591866,2.00761305 16.9245878,2.55935119 17.2717399,3.18638325 C17.61882,3.81347949 17.792972,4.49041864 17.792972,5.21604529 L17.792972,8.54967852 L14.7196825,8.54967852 L14.7196825,5.85126146 C14.7196825,4.8984051 14.4232858,4.16119231 13.8317522,3.63962309 C13.2389587,3.11798967 12.4355845,2.85834442 11.4201899,2.85834442 C10.504974,2.85834442 9.76909369,3.11798967 9.21010109,3.63962309 C8.65236837,4.16119231 8.37289006,4.8984051 8.37289006,5.85126146 L8.37289006,8.54967852 Z M19.3166399,9.91164466 C19.7730779,9.91164466 20.1669177,10.0587984 20.4971153,10.3532663 C20.827349,10.6476379 20.9910979,11.0000044 20.9910979,11.4080229 L20.9910979,18.4393063 C20.9910979,18.8473248 20.9105733,19.2298282 20.75064,19.5845697 C20.5894469,19.9391829 20.369759,20.2498585 20.0902447,20.5141254 C19.8106585,20.7784244 19.4804608,20.9870392 19.1008757,21.1377554 C18.7186629,21.289595 18.3000573,21.3649852 17.8424674,21.3649852 L5.02131022,21.3649852 C4.56368429,21.3649852 4.15033429,21.289595 3.7772286,21.1377554 C3.40405091,20.9870392 3.08681208,20.7865122 2.82425222,20.5373298 C2.56291624,20.2869278 2.35877901,19.9972099 2.21587215,19.6633941 C2.0728213,19.3317927 2,18.97596 2,18.5980782 L2,11.4080229 C2,11.0000044 2.16119318,10.6476379 2.48235565,10.3532663 C2.80344613,10.0588305 3.19347027,9.91164466 3.6510602,9.91164466 L19.3166399,9.91164466 Z" id="Page-1-Copy-2" fill="#008DFF"></path>
    </g>
</svg>