<?xml version="1.0" standalone="no"?><!DOCTYPE svg PUBLIC "-//W3C//DTD SVG 1.1//EN" "http://www.w3.org/Graphics/SVG/1.1/DTD/svg11.dtd"><svg class="icon" width="16px" height="16.00px" viewBox="0 0 1024 1024" version="1.1" xmlns="http://www.w3.org/2000/svg"><path d="M913.965118 46.47277c33.880148 0 61.364045 27.583838 61.364045 61.364044v664.410697c0 33.880148-27.583838 61.364045-61.364045 61.364045H109.036756c-33.880148 0-61.364045-27.583838-61.364045-61.364045V107.836814c0-33.880148 27.583838-61.364045 61.364045-61.364044h804.928362m0-46.47277H109.036756C49.471657 0 1.1 48.271716 1.1 107.836814v664.410697c0 59.565099 48.271716 107.936756 107.936756 107.936756h804.928362c59.565099 0 107.936756-48.271716 107.936756-107.936756V107.836814c0-59.565099-48.371657-107.836814-107.936756-107.836814z"  /><path d="M850.102538 292.528597c-9.094671-8.99473-23.886004-8.99473-32.880734 0L591.853855 517.796604 417.456041 343.39879s-0.099941-0.099941-0.099941-0.199883C412.858735 338.701542 406.862249 336.402889 400.865762 336.402889s-11.992973 2.298653-16.490337 6.796018c0 0-0.099941 0.099941-0.099942 0.199883L172.899336 554.774937c-9.094671 9.094671-9.094671 23.886004 0 32.880734 9.094671 9.094671 23.886004 9.094671 32.880734 0L400.865762 392.569979l174.497755 174.497755c4.497365 4.497365 10.493851 6.796018 16.490338 6.796018s11.992973-2.298653 16.490338-6.796018L850.102538 325.40933c8.99473-9.094671 8.99473-23.886004 0-32.880733zM1000.314523 1023.400351H23.187058c-12.792504 0-23.186414-10.39391-23.186414-23.186414 0-12.792504 10.39391-23.186414 23.186414-23.186414h977.127465c12.792504 0 23.186414 10.39391 23.186414 23.186414-0.099941 12.792504-10.493851 23.186414-23.186414 23.186414z"  /></svg>