<?xml version="1.0" encoding="UTF-8"?>
<svg width="22px" height="22px" viewBox="0 0 22 22" version="1.1" xmlns="http://www.w3.org/2000/svg" xmlns:xlink="http://www.w3.org/1999/xlink">
    <!-- Generator: Sketch 52.5 (67469) - http://www.bohemiancoding.com/sketch -->
    <title>user</title>
    <desc>Created with Sketch.</desc>
    <g id="user" stroke="none" stroke-width="1" fill="none" fill-rule="evenodd">
        <path d="M11.2684671,11.4993405 C14.3394069,11.4993405 16.8289534,9.14848155 16.8289534,6.2494797 C16.8289534,3.3498623 14.3394069,1 11.2684671,1 C8.19764864,1 5.70776876,3.3498623 5.70804154,6.2494797 C5.70801123,9.14848155 8.19764864,11.4993405 11.2684671,11.4993405 Z M13.8174805,13.2496751 L9.18306507,13.2496751 C5.21618198,13.2496751 2,16.2855075 2,20.0304668 L2,20.4679259 C2,21.9985051 5.21618198,22 9.18306507,22 L13.8174805,22 C17.7839089,22 21,21.9434563 21,20.4679259 L21,20.0304668 C21,16.2855075 17.784212,13.2496751 13.8174805,13.2496751 Z" id="Page-1-Copy" fill="#008DFF"></path>
    </g>
</svg>