<?xml version="1.0" standalone="no"?><!DOCTYPE svg PUBLIC "-//W3C//DTD SVG 1.1//EN" "http://www.w3.org/Graphics/SVG/1.1/DTD/svg11.dtd"><svg t="1596595693628" class="icon" viewBox="0 0 1024 1024" version="1.1" xmlns="http://www.w3.org/2000/svg" p-id="565" width="32" height="32" xmlns:xlink="http://www.w3.org/1999/xlink"><defs><style type="text/css"></style></defs><path d="M555.1616 162.6112a51.2 51.2 0 0 0-86.3232 0L66.9696 791.6544A51.2 51.2 0 0 0 110.1312 870.4H913.92a51.2 51.2 0 0 0 43.1616-78.7456l-401.92-629.0432z m43.1104-27.5456l401.92 628.992A102.4 102.4 0 0 1 913.8176 921.6H110.08a102.4 102.4 0 0 1-86.272-157.5424L425.728 135.0656a102.4 102.4 0 0 1 172.544 0zM512 281.6a25.6 25.6 0 0 1 25.6 25.6v358.4a25.6 25.6 0 1 1-51.2 0V307.2a25.6 25.6 0 0 1 25.6-25.6z m0 460.8a25.6 25.6 0 1 1 0 51.2 25.6 25.6 0 0 1 0-51.2z" fill="#1296db" p-id="566"></path></svg>