<?xml version="1.0" encoding="UTF-8"?>
<svg width="18px" height="18px" viewBox="0 0 18 18" version="1.1" xmlns="http://www.w3.org/2000/svg" xmlns:xlink="http://www.w3.org/1999/xlink">
    <!-- Generator: Sketch 52.5 (67469) - http://www.bohemiancoding.com/sketch -->
    <title>xmmx</title>
    <desc>Created with Sketch.</desc>
    <g id="xmmx" stroke="none" stroke-width="1"  fill-rule="evenodd">
        <g id="xiangmumoxing" transform="translate(2.000000, 2.000000)" >
            <path d="M6.54840425,11.9131414 C6.46224104,11.9131414 6.37607782,11.8959087 6.28991461,11.8442108 L2.84338606,9.86245688 C2.68829227,9.77629367 2.58489642,9.60396723 2.58489642,9.41440815 L2.58489642,5.46813297 C2.58489642,5.2785739 2.68829227,5.10624747 2.84338606,5.02008424 L6.28991461,3.03833034 C6.44500839,2.95216713 6.65180011,2.95216713 6.80689389,3.03833034 L10.2534225,5.02008424 C10.4085162,5.10624745 10.5119121,5.27857389 10.5119121,5.46813297 L10.5119121,9.41440815 C10.5119121,9.60396722 10.4085162,9.77629365 10.2534225,9.86245688 L6.80689389,11.8442108 C6.72073068,11.8959087 6.63456746,11.9131414 6.54840425,11.9131414 Z M3.61885498,9.12145323 L6.54840425,10.8102522 L9.47795353,9.12145323 L9.47795353,5.76108789 L6.54840425,4.08952153 L3.61885498,5.76108789 L3.61885498,9.12145323 Z" id="形状" fill-rule="nonzero"></path>
            <path d="M12.8383189,3.53807697 L6.80689389,0.074315772 C6.65180011,-0.0118474365 6.44500839,-0.0118474365 6.28991461,0.074315772 L0.258489642,3.53807697 C0.103395857,3.62424018 0,3.79656661 0,3.98612568 L0,10.8964154 C0,11.0859745 0.103395857,11.2583009 0.258489642,11.3444641 L6.28991461,14.8082253 C6.37607782,14.8599233 6.46224104,14.8771559 6.54840425,14.8771559 C6.63456746,14.8771559 6.72073068,14.8599233 6.80689389,14.8082253 L12.8383189,11.3444641 C12.9934127,11.2583009 13.0968085,11.0859745 13.0968085,10.8964154 L13.0968085,3.98612568 C13.0968085,3.79656661 12.9934127,3.62424018 12.8383189,3.53807697 Z M6.54840425,1.12550699 L11.5803359,4.02059097 L6.54840425,6.82951174 L1.51647257,4.00335833 L6.54840425,1.12550699 Z M1.03395857,4.93392104 L6.03142497,7.72560917 L6.03142497,13.4640792 L1.03395857,10.6034605 L1.03395857,4.93392104 Z M7.06538353,13.4640792 L7.06538353,7.76007445 L7.06538353,7.72560917 L12.06285,4.93392104 L12.06285,10.6034605 L7.06538353,13.4640792 Z" id="形状" fill-rule="nonzero"></path>
            <path d="M6.54840425,3.96889305 C6.25544933,3.96889305 6.03142497,3.74486868 6.03142497,3.45191376 L6.03142497,0.694690912 C6.03142497,0.40173599 6.25544933,0.177711629 6.54840425,0.177711629 C6.84135917,0.177711629 7.06538353,0.40173599 7.06538353,0.694690912 L7.06538353,3.45191376 C7.06538353,3.74486868 6.84135917,3.96889305 6.54840425,3.96889305 Z" id="路径"></path>
            <path d="M0.516979283,11.3789294 C0.327420218,11.3789294 0.155093785,11.2755336 0.0689305765,11.1032072 C-0.0689305603,10.8447175 0.0344652963,10.5345299 0.27572229,10.3966688 L2.86061871,9.01805737 C3.11910835,8.88019624 3.42929592,8.98359209 3.56715706,9.22484909 C3.70501819,9.48333873 3.60162234,9.7935263 3.36036534,9.93138744 L0.775468925,11.3099989 C0.689305717,11.3616968 0.603142492,11.3789294 0.516979283,11.3789294 Z" id="路径"></path>
            <path d="M12.5798292,11.3789294 C12.493666,11.3789294 12.4075028,11.3616968 12.3385722,11.3099989 L9.75367581,9.93138744 C9.49518617,9.7935263 9.40902296,9.48333873 9.54688409,9.22484909 C9.68474523,8.96635945 9.9949328,8.88019624 10.2534225,9.01805737 L12.8383189,10.3966688 C13.0968085,10.5345299 13.1829717,10.8447175 13.0451106,11.1032072 C12.9417147,11.2755336 12.7693883,11.3789294 12.5798292,11.3789294 Z" id="路径"></path>
        </g>
    </g>
</svg>