<?xml version="1.0" encoding="UTF-8"?>
<svg width="18px" height="18px" viewBox="0 0 18 18" version="1.1" xmlns="http://www.w3.org/2000/svg" xmlns:xlink="http://www.w3.org/1999/xlink">
    <!-- Generator: Sketch 52.5 (67469) - http://www.bohemiancoding.com/sketch -->
    <title>xmry</title>
    <desc>Created with Sketch.</desc>
    <g id="xmry" stroke="none" stroke-width="1" fill-rule="evenodd">
        <g id="xiangmurenyuan" transform="translate(1.000000, 3.000000)">
            <path d="M8.80195196,1.88742274 L13.57615,1.88742274 L13.57615,2.89484869 L8.80195196,2.89484869 L8.80195196,1.88742274 Z M8.80195196,4.05782376 L13.57615,4.05782376 L13.57615,5.06524972 L8.80195196,5.06524972 L8.80195196,4.05782376 Z M10.0541617,6.3740927 L13.57615,6.3740927 L13.57615,7.38151865 L10.0541617,7.38151865 L10.0541617,6.3740927 Z M9.75363407,11.3316519 C9.75363407,9.06695333 8.19774954,7.16398252 6.100368,6.62084347 C7.3596932,6.13151545 8.2557854,4.90952956 8.2557854,3.47910717 C8.2557854,1.61906888 6.74312416,0.10616817 4.88310297,0.10616817 C3.02303047,0.10616817 1.51040344,1.61910308 1.51040344,3.47910717 C1.51040344,4.90954666 2.40644432,6.13151545 3.66578663,6.62084347 C1.56835378,7.16396541 0.0124863484,9.06695333 0.0124863484,11.3316519 L0.0133757869,11.3316519 C0.0133757869,11.3375701 0.0131534273,11.3434541 0.0131534273,11.3493723 C0.0131534273,11.3742766 0.0137349832,11.399044 0.0140941795,11.4238628 L1.02317928,11.4238628 C1.02262869,11.3990362 1.02231509,11.3742049 1.02223853,11.3493723 C1.02223853,9.21689213 2.7509478,7.48818286 4.88341085,7.48818286 C7.0158739,7.48818286 8.74460028,9.21689213 8.74460028,11.3493723 C8.74460028,11.3742766 8.74412135,11.3990782 8.74364243,11.4238628 L9.75271042,11.4238628 C9.75306962,11.399044 9.75365117,11.3742595 9.75365117,11.3493723 C9.75365117,11.3434541 9.75344592,11.3375701 9.75342881,11.3316519 L9.75363407,11.3316519 Z M2.53476293,3.47910717 C2.53476293,2.18415311 3.58833706,1.13083555 4.88308587,1.13083555 C6.17780046,1.13083555 7.23137459,2.18413601 7.23137459,3.47912427 C7.23137459,4.77366782 6.17780046,5.82729327 4.88308587,5.82729327 C3.58835417,5.82729327 2.53476293,4.77366782 2.53476293,3.47910717 Z" id="形状" fill-rule="nonzero"></path>
            <path d="M14.4675043,0.0139573429 L7.80206913,0.0139573429 L7.80206913,1.0214004 L13.9851549,1.0214004 C14.1785052,1.0214004 14.3352174,1.17811263 14.3352174,1.37146288 L14.3352174,10.0663401 C14.3352174,10.2596904 14.1785052,10.4164026 13.9851549,10.4164026 L11.4369136,10.4164026 L11.4369136,11.4238457 L14.4675043,11.4238457 C14.9508457,11.4238457 15.3426775,11.0320138 15.3426775,10.5486895 L15.3426775,0.889130632 C15.3426604,0.405789218 14.9508457,0.0139573429 14.4675043,0.0139573429 Z" id="路径"></path>
        </g>
    </g>
</svg>