<?xml version="1.0" encoding="UTF-8"?>
<svg width="18px" height="18px" viewBox="0 0 18 18" version="1.1" xmlns="http://www.w3.org/2000/svg" xmlns:xlink="http://www.w3.org/1999/xlink">
    <!-- Generator: Sketch 52.5 (67469) - http://www.bohemiancoding.com/sketch -->
    <title>xmxx</title>
    <desc>Created with Sketch.</desc>
    <g id="xmxx" stroke="none" stroke-width="1"  fill-rule="evenodd">
        <g id="xiangmuxinxi" transform="translate(2.000000, 3.000000)" fill-rule="nonzero">
            <path d="M11.394203,5.66441393 L5.35468657,5.66441393 C5.17682388,5.66441393 5.02392438,5.81731343 5.02392438,5.99517612 C5.02392438,6.17303881 5.17682388,6.32593831 5.35468657,6.32593831 L11.3942169,6.32593831 C11.5720796,6.32593831 11.7249791,6.17303881 11.7249791,5.99517612 C11.7249791,5.79235025 11.5720796,5.66441393 11.3942169,5.66441393 L11.394203,5.66441393 Z M11.394203,8.44312836 L5.35468657,8.44312836 C5.17682388,8.44312836 5.02392438,8.59602786 5.02392438,8.77389055 C5.02392438,8.95175323 5.17682388,9.10465274 5.35468657,9.10465274 L11.3942169,9.10465274 C11.5720796,9.10465274 11.7249791,8.95175323 11.7249791,8.77389055 C11.7249791,8.59602786 11.5720796,8.44312836 11.3942169,8.44312836 L11.394203,8.44312836 Z M13.1275841,2.02134925 L8.79492537,2.02134925 L8.71847562,1.81696318 C8.20827662,0.389381095 7.21442985,0.0336557214 6.47645572,0.00713233831 L0.870660697,0.00713233831 C0.386999005,0.00713233831 0.00475024876,0.389381095 0.00475024876,0.848079602 L0.00475024876,11.474595 C0.00475024876,11.9332935 0.386999005,12.3155423 0.870660697,12.3155423 L13.1275841,12.3155423 C13.6112458,12.3155423 13.9934945,11.9332935 13.9934945,11.474595 L13.9934945,2.86229652 C13.9934945,2.40359801 13.6112458,2.02134925 13.1275841,2.02134925 Z M0.870660697,1.23188856 C0.870660697,0.56880398 1.10000995,0.671777114 2.06889353,0.671777114 L5.53410945,0.671777114 C7.01161791,0.671777114 7.39386667,1.0025393 7.67470249,1.48776119 L7.87908856,1.99794627 L0.870660697,1.99794627 L0.870660697,1.23188856 Z M13.1775104,10.557198 C13.1775104,11.5260816 12.8467483,11.5510448 12.0307642,11.5510448 L2.01740697,11.5510448 C1.0235602,11.5510448 0.870660697,11.474595 0.870660697,10.4042985 L0.870660697,2.81080995 L12.2351642,2.81080995 C13.3054607,2.81080995 13.1775244,3.21802189 13.1775244,3.95755622 L13.1775244,10.557198 L13.1775104,10.557198 Z M2.2717194,5.41010149 L3.34201592,5.41010149 L3.34201592,6.48039801 L2.2717194,6.48039801 L2.2717194,5.41010149 Z M2.2717194,8.23874229 L3.34201592,8.23874229 L3.34201592,9.30903881 L2.2717194,9.30903881 L2.2717194,8.23874229 Z" id="形状"></path>
        </g>
    </g>
</svg>