<?xml version="1.0" encoding="UTF-8"?>
<svg width="18px" height="18px" viewBox="0 0 18 18" version="1.1" xmlns="http://www.w3.org/2000/svg" xmlns:xlink="http://www.w3.org/1999/xlink">
    <!-- Generator: Sketch 52.5 (67469) - http://www.bohemiancoding.com/sketch -->
    <title>zlgl</title>
    <desc>Created with Sketch.</desc>
    <g id="zlgl" stroke="none" stroke-width="1" fill-rule="evenodd">
        <g id="zhiliangguanli-2" transform="translate(2.000000, 1.000000)" fill-rule="nonzero">
            <path d="M13.9818459,4.37107551 C13.9435729,2.89756217 13.7679268,1.9031457 13.7665599,1.89221053 C13.7593758,1.81593874 13.7205182,1.74618095 13.6594497,1.6999248 C13.5983811,1.65366864 13.5207058,1.6351589 13.4453394,1.64890313 C13.4357712,1.65027002 12.6867124,1.90109535 11.7134828,1.90109535 C11.1537391,1.90109535 10.5092479,1.69606103 10.1620565,1.58944318 C9.37907832,1.34965345 8.62745658,1.01743481 7.92308162,0.599810826 C7.42348132,0.304561398 7.16103739,0.0797070938 7.15898703,0.0776567506 C7.05567482,-0.0113260826 6.90280573,-0.0113260826 6.79949352,0.0776567506 C6.79675973,0.0797070938 6.53431579,0.304561398 6.03539893,0.599810826 C5.57543859,0.871823025 4.8140778,1.27847444 3.79847444,1.58944318 C3.45128298,1.69537757 2.85736689,1.9174981 2.29830664,1.9174981 C1.32371014,1.9174981 0.526810069,1.65095348 0.517925243,1.64890313 C0.442513558,1.63537855 0.36487988,1.65395647 0.303759711,1.70015346 C0.242639542,1.74635044 0.203585054,1.81596994 0.196021352,1.89221053 C0.194654462,1.9031457 0.0586483547,2.89687872 0.019691833,4.37175897 C-0.0158474554,5.73387034 -0.00149505263,7.57234478 0.241128904,9.39168268 C0.353897783,10.2398413 0.812491217,10.9916339 1.53831274,11.8479939 C2.10557437,12.5177727 2.85941725,13.186868 3.77865446,13.83546 C5.33281465,14.933077 6.82273073,15.5885034 6.88492449,15.6158413 C6.95546889,15.6469036 7.03581715,15.6469036 7.10636156,15.6158413 C7.16855531,15.5885034 8.6256659,14.933077 10.1818764,13.83546 C11.1011137,13.1861846 11.85564,12.5177727 12.4235851,11.8479939 C13.1494066,10.9916339 13.6086835,10.1728635 13.7221358,9.32470481 C13.8560915,8.32003661 14.0467735,6.83968879 13.9818459,4.37175897 L13.9818459,4.37107551 Z M12.6586911,9.18186423 C12.5766773,9.79491686 12.2103494,10.4387246 11.6061815,11.1501938 C11.097013,11.7509443 10.410148,12.3578459 9.56472311,12.9544958 C8.74711811,13.527233 7.88713913,14.0369602 6.99222579,14.4792677 C6.08752139,14.0412405 5.21928299,13.5315875 4.39580778,12.9551792 C3.55106636,12.3585294 2.86488483,11.7509443 2.35503279,11.1508772 C1.71942639,10.4004516 1.3818032,9.83182303 1.30389016,9.24884211 C1.05784897,7.40695041 1.0612662,5.59513043 1.09202135,4.39978032 C1.10774065,3.80928146 1.15353165,3.29942945 1.18155302,2.90302975 C1.55082458,2.96281208 1.92422907,2.99343399 2.29830664,2.99461174 C2.94279787,2.99461174 3.5531167,2.79777879 3.95703432,2.66792373 C4.01376048,2.65015409 4.06706941,2.63238444 4.11149352,2.61939893 C4.97465838,2.35425145 5.80332013,1.98763974 6.58010679,1.52724943 C6.71542945,1.44728604 6.84870176,1.36390542 6.97924027,1.27710755 C7.10977879,1.36390542 7.2430511,1.44796949 7.37837376,1.52724943 C8.15586032,1.98768418 8.98520587,2.35429391 9.84903737,2.61939893 L9.89346149,2.63306789 C10.2857605,2.75335469 11.0170496,2.97752556 11.7134828,2.97752556 C12.1132998,2.97752556 12.4803112,2.94266972 12.7940137,2.89482838 C12.8275027,3.29122808 12.8944805,3.80586423 12.9101998,4.39978032 C12.973077,6.82465293 12.783762,8.24280702 12.6586911,9.18186423 Z M9.82921739,10.0881159 C10.2885269,9.3333994 10.5311347,8.46677404 10.5304348,7.58327993 C10.5304348,4.98139435 9.20249581,3.49626238 7.02776506,3.4962624 C4.82432952,3.4962624 3.52509534,5.00668192 3.52509535,7.58327993 C3.52509535,10.1291228 4.89882533,11.5821327 7.02776506,11.5821327 C7.92649886,11.5821327 8.67624103,11.3183219 9.26058886,10.7913837 L10.0486041,11.5383921 C10.1360854,11.5964851 10.2522716,11.6409092 10.3985294,11.6702975 C10.6616568,11.6409092 10.8072311,11.5240397 10.8366194,11.3183219 C10.8366194,11.2021358 10.7778429,11.0702304 10.6616568,10.9232891 L9.82990084,10.0881159 L9.82921739,10.0881159 Z M9.08562624,9.38484821 L8.56005492,8.85791 C8.45842854,8.74742973 8.31580387,8.68365648 8.16570556,8.68158048 C7.90326163,8.74104043 7.7570038,8.8866148 7.72829901,9.12103737 C7.69891076,9.26797863 7.77203968,9.39988405 7.94700229,9.51743707 L8.60379558,10.13254 C8.19441038,10.5713135 7.66952251,10.6909169 7.02776506,10.6909169 C5.45173455,10.6321404 4.50857666,9.66506178 4.50857666,7.58327993 C4.50857666,5.57120975 5.45173455,4.46334096 7.02776506,4.3751762 C8.57440732,4.46334096 9.54627002,5.54865599 9.54627002,7.58327993 C9.54627002,8.27356216 9.31868192,8.85790998 9.08562624,9.38484821 Z" id="形状"></path>
        </g>
    </g>
</svg>